<svg width="1260" height="88" viewBox="0 0 1260 88" fill="none" xmlns="http://www.w3.org/2000/svg">
<g clip-path="url(#clip0_17_351)">
<path fill-rule="evenodd" clip-rule="evenodd" d="M177.122 51.5095C171.551 60.9557 162.727 58.2147 160.077 56.0686C158.949 56.8339 156.971 58.5112 154.334 58.3175C148.718 57.9052 146.707 49.8795 146.707 49.8795C146.747 49.9116 145.034 50.4707 144.108 50.4607C144.096 52.8143 142.062 58.4366 136.571 58.3647C130.41 58.2843 129.157 49.105 129.157 49.105C129.157 49.105 128.544 49.9564 126.213 50.8044C126.33 48.9962 126.244 58.0894 118.86 58.2231C113.021 58.3289 111.446 48.9634 111.446 48.9634C111.446 48.9634 110.433 50.0155 108.47 50.3804C108.595 48.5427 108.392 58.254 101.006 58.2231C96.0153 58.2024 94.3098 52.454 94.4424 51.6561C94.6117 50.6393 92.7556 58.3661 87.9075 58.2458C85.9069 58.187 84.4154 56.7384 83.4794 54.8073C82.2265 56.2409 80.4074 58.2458 78.3668 58.2458C74.7037 58.2458 73.0889 55.182 73.3624 46.4314C73.3857 45.3935 73.3108 44.9853 72.2791 44.83C71.6598 44.7267 71.0256 44.5311 70.3546 44.4279C70.1395 45.1456 68.3154 58.0122 62.0428 58.2565C59.9384 58.3384 58.7878 56.5155 57.8428 55.1625C56.3943 57.0788 54.4821 58.3175 51.7581 58.3175C47.1438 58.3175 44 54.5873 44 49.9858C44 45.3842 47.1438 41.6544 51.7581 41.6544C52.574 41.6544 52.803 41.7713 53.5483 41.9888C52.0155 28.0331 55.6354 25.852 58.802 25.852C61.8421 25.852 67.0357 32.908 59.7278 50.8058C61.3503 56.1442 64.8481 55.8423 66.5289 44.8528C66.871 42.619 65.9563 39.6046 67.3791 39.1839C69.9799 38.415 70.2558 40.7219 71.4753 41.1062C72.7647 41.5125 73.5173 41.4728 74.7551 41.7313C76.8703 42.1444 77.6958 43.2807 77.438 45.8114C77.1286 49.0136 76.5872 53.6743 78.2378 54.2424C79.4282 54.655 81.6014 52.1865 81.9828 50.8358C82.364 49.4852 82.4437 49.0229 82.4775 48.0322C82.5291 45.9149 82.5938 44.3629 82.9549 42.7616C83.1094 42.142 83.2856 41.7317 83.9866 41.7036C84.5634 41.6889 85.6183 41.5152 86.0827 41.8766C86.7016 42.3417 86.6242 42.8136 86.5532 44.0555C85.8334 61.7627 91.3736 52.9231 93.0254 45.8453C92.4372 37.8419 92.8411 25.9986 97.8563 25.8C100.465 25.6966 101.618 27.7862 101.745 29.3459C102.103 33.751 100.094 41.0479 97.4509 45.9551C95.9404 55.9679 104.055 57.9477 105.353 49.9555C103.23 48.946 100.935 44.8602 102.802 42.8691C103.85 41.7516 108.211 43.3569 108.282 46.8582C110.422 46.2861 110.707 45.0783 110.737 45.2784C110.149 37.2751 110.694 25.9987 115.71 25.8001C118.318 25.6968 119.471 27.7863 119.598 29.346C119.956 33.7511 117.947 41.048 115.304 45.9553C113.794 55.9679 121.909 57.9479 123.206 49.9557C121.634 49.6523 118.316 45.3065 120.23 42.8692C121.253 41.5667 125.599 44.2753 126.085 46.9742C128.14 46.3926 128.419 45.2232 128.449 45.42C127.86 37.4169 128.406 26.1405 133.422 25.9419C136.029 25.8386 137.182 27.9282 137.309 29.4878C137.668 33.8929 135.658 41.19 133.016 46.0972C131.505 56.11 139.62 58.0894 140.918 50.0972C138.757 49.7376 135.688 45.149 138.158 42.8016C139.146 41.8636 142.918 44.2983 143.8 47.0759C145.027 47.0287 145.791 46.6056 145.955 46.563C143.996 37.1675 145.454 25.8943 150.85 25.8002C153.766 25.7494 156.617 27.3767 155.365 36.3153C154.171 44.8437 149.877 48.4227 149.887 48.4775C150.137 49.4992 152.34 58.0498 157.888 53.5382C157.601 52.8879 157.314 52.2235 157.153 51.4186C156.233 46.7302 158.04 41.4345 162.949 40.5786C165.762 40.0883 168.412 41.4578 168.831 44.5451C169.52 49.5971 164.958 53.2557 163.224 54.0494C162.447 53.608 170.266 58.6233 174.907 48.5726C175.176 47.9987 175.501 48.0473 175.921 48.3431C176.218 48.552 177.909 50.1537 177.122 51.5095ZM55.1146 48.7445C54.8785 48.0385 54.3939 46.483 54.2225 45.809C53.2787 44.9883 52.6051 44.855 51.3937 44.855C48.7016 44.855 47.1171 47.344 47.1171 50.0279C47.1171 52.7117 48.8433 55.2011 51.5354 55.2011C53.8685 55.2011 55.6441 53.6148 56.1858 51.3693C55.8067 50.4939 55.4305 49.6894 55.1146 48.7445ZM58.736 29.5462C56.8444 29.5462 56.2027 34.0587 56.3272 37.9083C56.4374 41.3117 57.3884 44.3081 57.8818 45.6507C58.007 45.819 57.9838 45.7095 58.0956 45.8879C61.38 38.6915 60.0177 29.5462 58.736 29.5462ZM98.1265 29.6879C95.6817 29.4076 95.6975 39.5921 96.001 41.8766C97.2707 39.8453 99.4765 30.2349 98.1265 29.6879ZM115.98 29.6879C113.535 29.4076 113.551 39.5921 113.854 41.8766C115.124 39.8453 117.33 30.2349 115.98 29.6879ZM133.691 29.8296C131.246 29.5492 131.262 39.7339 131.566 42.0186C132.835 39.9871 135.041 30.3765 133.691 29.8296ZM151.119 29.0918C147.31 29.8567 148.197 42.5571 148.776 44.7846C153.263 38.6219 153.355 28.8603 151.119 29.0918ZM165.395 44.963C165.202 44.1532 164.233 43.7204 163.565 43.8271C161.652 44.0883 159.797 46.4703 160.515 50.0969C160.675 50.9046 161.075 51.6481 161.069 51.6233C165.349 48.7517 165.713 46.4888 165.395 44.963ZM84.7364 38.9004C84.1898 38.9005 83.6554 38.7385 83.2008 38.4348C82.7463 38.1312 82.3919 37.6996 82.1826 37.1946C81.9733 36.6896 81.9186 36.1338 82.0253 35.5977C82.1318 35.0615 82.3951 34.5691 82.7816 34.1825C83.168 33.7959 83.6605 33.5327 84.1966 33.426C84.7327 33.3193 85.2885 33.3741 85.7936 33.5833C86.2986 33.7924 86.7302 34.1467 87.0339 34.6012C87.3376 35.0558 87.4997 35.5902 87.4997 36.1368C87.4997 36.4997 87.4282 36.859 87.2893 37.1943C87.1505 37.5296 86.947 37.8342 86.6904 38.0909C86.4337 38.3475 86.1292 38.5511 85.7939 38.69C85.4587 38.8289 85.0994 38.9004 84.7364 38.9004Z" fill="#9CCFC7"/>
</g>
<path d="M284.003 45.1654C284.003 50.0254 280.201 53.6066 275.535 53.6066C270.869 53.6066 267.067 50.0254 267.067 45.1654C267.067 40.2711 270.869 36.7241 275.535 36.7241C280.201 36.7241 284.003 40.2711 284.003 45.1654ZM280.296 45.1654C280.296 42.1283 278.093 40.0504 275.535 40.0504C272.978 40.0504 270.774 42.1283 270.774 45.1654C270.774 48.1719 272.978 50.2804 275.535 50.2804C278.093 50.2804 280.296 48.1681 280.296 45.1654Z" fill="#9CCFC7"/>
<path d="M302.271 45.1654C302.271 50.0254 298.469 53.6066 293.803 53.6066C289.137 53.6066 285.335 50.0254 285.335 45.1654C285.335 40.2749 289.137 36.7241 293.803 36.7241C298.469 36.7241 302.271 40.2711 302.271 45.1654ZM298.564 45.1654C298.564 42.1283 296.361 40.0504 293.803 40.0504C291.246 40.0504 289.042 42.1283 289.042 45.1654C289.042 48.1719 291.246 50.2804 293.803 50.2804C296.361 50.2804 298.564 48.1681 298.564 45.1654Z" fill="#9CCFC7"/>
<path d="M319.778 37.2341V52.3888C319.778 58.6227 316.101 61.1687 311.755 61.1687C307.664 61.1687 305.202 58.4324 304.273 56.1946L307.5 54.8511C308.075 56.225 309.483 57.8463 311.751 57.8463C314.533 57.8463 316.258 56.1299 316.258 52.8987V51.6847H316.128C315.298 52.7085 313.7 53.6028 311.683 53.6028C307.462 53.6028 303.596 49.9264 303.596 45.1958C303.596 40.431 307.462 36.7241 311.683 36.7241C313.696 36.7241 315.295 37.6185 316.128 38.6118H316.258V37.2379H319.778V37.2341ZM316.52 45.1958C316.52 42.2235 314.537 40.0504 312.014 40.0504C309.457 40.0504 307.314 42.2235 307.314 45.1958C307.314 48.1377 309.457 50.2804 312.014 50.2804C314.537 50.2804 316.52 48.1377 316.52 45.1958Z" fill="#9CCFC7"/>
<path d="M325.581 28.3515V53.0892H321.966V28.3515H325.581Z" fill="#9CCFC7"/>
<path d="M339.671 47.9436L342.548 49.8617C341.619 51.2356 339.382 53.6028 335.515 53.6028C330.72 53.6028 327.138 49.896 327.138 45.1616C327.138 40.1417 330.75 36.7203 335.1 36.7203C339.48 36.7203 341.623 40.2064 342.323 42.0903L342.708 43.0494L331.424 47.7229C332.288 49.4165 333.631 50.2804 335.515 50.2804C337.403 50.2804 338.712 49.3518 339.671 47.9436ZM330.815 44.9066L338.358 41.7744C337.943 40.7202 336.695 39.9857 335.226 39.9857C333.342 39.9857 330.72 41.6488 330.815 44.9066Z" fill="#9CCFC7"/>
<path d="M253.382 42.9693V39.3881H265.45C265.568 40.0122 265.629 40.7506 265.629 41.5498C265.629 44.2367 264.894 47.5591 262.527 49.9263C260.224 52.324 257.283 53.6027 253.385 53.6027C246.162 53.6027 240.088 47.719 240.088 40.4956C240.088 33.2722 246.162 27.3884 253.385 27.3884C257.381 27.3884 260.228 28.9564 262.367 31.0001L259.84 33.5272C258.306 32.0886 256.228 30.9697 253.382 30.9697C248.107 30.9697 243.981 35.2207 243.981 40.4956C243.981 45.7704 248.107 50.0215 253.382 50.0215C256.803 50.0215 258.752 48.6476 260 47.3993C261.012 46.3869 261.678 44.9407 261.941 42.9655L253.382 42.9693Z" fill="#9CCFC7"/>
<g clip-path="url(#clip1_17_351)">
<path d="M437.56 34.9275C431.722 34.9275 427.161 39.3593 427.161 45.2921C427.161 51.2249 431.607 55.6188 437.56 55.6188C443.513 55.6188 448.037 51.1491 448.037 45.2542C448.037 39.3972 443.591 34.9275 437.56 34.9275ZM437.599 51.3431C434.275 51.3431 431.839 48.7611 431.839 45.2936C431.839 41.7867 434.236 39.2061 437.56 39.2061C440.924 39.2061 443.359 41.8261 443.359 45.2936C443.359 48.7611 440.924 51.3431 437.599 51.3431ZM449.312 39.4366H452.212V55.2351H456.851V35.3127H449.312V39.4366ZM415.486 39.2046C417.922 39.2046 419.855 40.7072 420.589 42.942H425.499C424.609 38.1645 420.666 34.9275 415.525 34.9275C409.687 34.9275 405.126 39.3593 405.126 45.2936C405.126 51.2279 409.572 55.6202 415.525 55.6202C420.551 55.6202 424.571 52.3832 425.461 47.5663H420.589C419.893 49.8012 417.96 51.3431 415.524 51.3431C412.16 51.3431 409.803 48.7611 409.803 45.2936C409.804 41.7867 412.123 39.2046 415.486 39.2046ZM537.454 43.3665L534.052 42.8662C532.429 42.6357 531.269 42.096 531.269 40.8239C531.269 39.4366 532.777 38.7437 534.825 38.7437C537.068 38.7437 538.498 39.7065 538.808 41.2863H543.292C542.789 37.2791 539.696 34.929 534.942 34.929C530.032 34.929 526.785 37.4337 526.785 40.9785C526.785 44.3687 528.911 46.3352 533.202 46.9507L536.603 47.4511C538.267 47.6816 539.194 48.338 539.194 49.5707C539.194 51.1506 537.571 51.8055 535.329 51.8055C532.583 51.8055 531.037 50.6881 530.805 48.993H526.243C526.669 52.885 529.723 55.6202 535.289 55.6202C540.354 55.6202 543.716 53.3081 543.716 49.3387C543.716 45.7939 541.282 43.9442 537.454 43.3665ZM454.531 27.1056C452.83 27.1056 451.554 28.3382 451.554 30.0333C451.554 31.7284 452.829 32.9611 454.531 32.9611C456.232 32.9611 457.509 31.7284 457.509 30.0333C457.509 28.3382 456.232 27.1056 454.531 27.1056ZM522.61 42.1339C522.61 37.8188 519.981 34.929 514.414 34.929C509.157 34.929 506.219 37.5883 505.638 41.6729H510.239C510.471 40.093 511.708 38.7831 514.337 38.7831C516.696 38.7831 517.855 39.8232 517.855 41.0952C517.855 42.7524 515.728 43.1754 513.1 43.4453C509.543 43.8304 505.136 45.0631 505.136 49.6874C505.136 53.2716 507.804 55.5823 512.057 55.5823C515.381 55.5823 517.469 54.195 518.513 51.9981C518.668 53.9631 520.137 55.2351 522.187 55.2351H524.893V51.1126H522.611V42.1339H522.61ZM518.048 47.1433C518.048 49.8026 515.728 51.7676 512.906 51.7676C511.166 51.7676 509.697 51.0353 509.697 49.4948C509.697 47.5299 512.055 46.9901 514.22 46.7597C516.308 46.5671 517.467 46.1046 518.048 45.2177V47.1433ZM493.422 34.9275C490.832 34.9275 488.667 36.007 487.121 37.8174V26.913H482.482V55.2351H487.043V52.6152C488.589 54.5028 490.794 55.6202 493.422 55.6202C498.989 55.6202 503.203 51.2279 503.203 45.2936C503.203 39.3593 498.912 34.9275 493.422 34.9275ZM492.727 51.3431C489.402 51.3431 486.966 48.7611 486.966 45.2936C486.966 41.8261 489.44 39.2061 492.764 39.2061C496.128 39.2061 498.486 41.7882 498.486 45.2936C498.486 48.7611 496.051 51.3431 492.727 51.3431ZM471.386 34.9275C468.371 34.9275 466.399 36.1602 465.239 37.8947V35.3127H460.638V55.2337H465.277V44.4067C465.277 41.3622 467.21 39.2046 470.07 39.2046C472.738 39.2046 474.4 41.0923 474.4 43.829V55.2351H479.039V43.4832C479.04 38.4723 476.451 34.9275 471.386 34.9275ZM565.83 44.6386C565.83 38.9362 561.655 34.929 556.049 34.929C550.096 34.929 545.727 39.3987 545.727 45.2936C545.727 51.4977 550.405 55.6202 556.127 55.6202C560.959 55.6202 564.748 52.7684 565.713 48.7231H560.88C560.185 50.4956 558.484 51.4977 556.202 51.4977C553.225 51.4977 550.983 49.648 550.481 46.411H565.829V44.6386H565.83ZM550.752 43.0967C551.488 40.3221 553.575 38.9742 555.972 38.9742C558.6 38.9742 560.611 40.4767 561.074 43.0967H550.752Z" fill="#9CCFC7"/>
</g>
<g clip-path="url(#clip2_17_351)">
<path d="M700.812 28.5529C697.203 28.5529 693.892 29.819 691.294 31.9292C688.606 29.7405 685.243 28.5478 681.777 28.5529C678.167 28.5529 674.857 29.819 672.259 31.9292C669.57 29.7405 666.208 28.5478 662.741 28.5529C659.132 28.5529 655.821 29.819 653.224 31.9292C651.007 30.1305 648.327 28.9967 645.492 28.659C642.658 28.3213 639.786 28.7935 637.209 30.021C634.632 31.2486 632.455 33.1811 630.932 35.5948C629.408 38.0084 628.599 40.8044 628.599 43.6588C628.599 46.5133 629.408 49.3093 630.932 51.7229C632.455 54.1366 634.632 56.0691 637.209 57.2966C639.786 58.5242 642.658 58.9964 645.492 58.6587C648.327 58.321 651.007 57.1872 653.224 55.3885C655.821 57.4987 659.132 58.7648 662.741 58.7648C666.35 58.7648 669.661 57.4987 672.259 55.3885C674.857 57.4987 678.167 58.7648 681.777 58.7648C685.386 58.7648 688.696 57.4987 691.294 55.3885C693.172 56.9122 695.388 57.9628 697.756 58.4522C700.124 58.9416 702.574 58.8554 704.902 58.2008C707.23 57.5462 709.366 56.3424 711.132 54.6906C712.898 53.0387 714.242 50.9871 715.05 48.7082C715.858 46.4293 716.108 43.9896 715.777 41.5943C715.447 39.199 714.546 36.918 713.151 34.9431C711.756 32.9681 709.907 31.357 707.76 30.245C705.613 29.133 703.23 28.5527 700.812 28.5529ZM691.294 50.4478C689.876 48.4682 689.115 46.0937 689.118 43.6588C689.118 41.1266 689.926 38.7836 691.294 36.8699C692.662 38.7836 693.47 41.1266 693.47 43.6588C693.47 46.1911 692.662 48.5341 691.294 50.4478ZM672.259 50.4478C670.841 48.4682 670.08 46.0937 670.083 43.6588C670.083 41.1266 670.891 38.7836 672.259 36.8699C673.627 38.7836 674.435 41.1266 674.435 43.6588C674.435 46.1911 673.627 48.5341 672.259 50.4478ZM653.224 50.4478C651.806 48.4682 651.045 46.0937 651.048 43.6588C651.048 41.1266 651.856 38.7836 653.224 36.8699C654.592 38.7836 655.399 41.1266 655.399 43.6588C655.399 46.1911 654.592 48.5341 653.224 50.4478ZM632.013 43.6588C632.014 41.4769 632.625 39.3388 633.778 37.4862C634.93 35.6336 636.578 34.1405 638.535 33.1756C640.492 32.2107 642.68 31.8127 644.851 32.0264C647.023 32.2401 649.091 33.0571 650.822 34.385C648.754 37.0334 647.632 40.2983 647.635 43.6588C647.635 47.1552 648.829 50.375 650.822 52.9327C649.091 54.2606 647.023 55.0776 644.851 55.2913C642.68 55.505 640.492 55.107 638.535 54.1421C636.578 53.1772 634.93 51.6841 633.778 49.8315C632.625 47.9789 632.014 45.8407 632.013 43.6588ZM655.625 52.9327C657.693 50.2843 658.815 47.0194 658.812 43.6588C658.812 40.1625 657.619 36.9427 655.625 34.385C657.665 32.8146 660.167 31.9639 662.741 31.9655C665.419 31.9655 667.886 32.8678 669.858 34.385C667.788 37.0329 666.666 40.2981 666.671 43.6588C666.671 47.1552 667.864 50.375 669.858 52.9327C667.818 54.5031 665.316 55.3538 662.741 55.3521C660.167 55.3557 657.664 54.5048 655.625 52.9327ZM674.66 52.9327C676.73 50.2848 677.852 47.0196 677.847 43.6588C677.847 40.1625 676.654 36.9427 674.66 34.3813C676.632 32.8678 679.099 31.9619 681.777 31.9619C684.454 31.9619 686.921 32.8642 688.893 34.3813C686.823 37.0292 685.701 40.2945 685.706 43.6552C685.706 47.1516 686.899 50.3714 688.893 52.9291C686.853 54.4994 684.351 55.3502 681.777 55.3485C679.202 55.3548 676.699 54.505 674.66 52.9327ZM700.812 55.3521C698.237 55.3557 695.734 54.5048 693.695 52.9327C695.763 50.284 696.885 47.0193 696.882 43.6588C696.882 40.1625 695.689 36.9427 693.695 34.385C695.17 33.2528 696.892 32.4884 698.721 32.1551C700.55 31.8218 702.431 31.9292 704.21 32.4684C705.989 33.0076 707.613 33.9631 708.949 35.2556C710.285 36.5482 711.293 38.1405 711.891 39.9006C712.488 41.6607 712.657 43.5379 712.384 45.3765C712.111 47.215 711.404 48.962 710.321 50.4726C709.238 51.9831 707.81 53.2137 706.156 54.0623C704.503 54.9109 702.671 55.3531 700.812 55.3521Z" fill="#9CCFC7"/>
</g>
<path d="M822.466 39.9599C822.466 37.494 820 34.8636 815.89 34.8636C811.287 34.8636 806.026 38.316 805.204 45.2207C804.382 52.1254 808.656 55.2489 813.095 55.2489C817.534 55.2489 819.671 53.6049 821.972 51.3034C820 48.8374 817.369 49.9882 816.876 50.1526C816.383 50.4814 815.561 50.8102 814.246 50.8102C812.602 50.8102 810.793 49.9882 810.793 46.8646C821.644 45.7138 822.466 42.4259 822.466 39.9599ZM817.205 40.2887C817.205 41.1107 816.876 42.4259 811.451 43.0835C812.602 38.9735 814.739 38.6448 815.725 38.6448C816.712 38.8092 817.205 39.4667 817.205 40.2887ZM798.957 40.9463C798.957 40.9463 796.655 48.1798 796.491 48.8374C796.491 48.1798 794.682 35.1924 794.682 35.1924C790.737 35.1924 788.6 37.9872 787.613 40.9463C787.613 40.9463 784.819 48.1798 784.654 48.8374C784.49 48.3442 784.161 41.1107 784.161 41.1107C783.832 37.494 780.544 35.1924 777.914 35.1924L781.202 54.9201C785.312 54.9201 787.613 52.1254 788.764 49.1662C788.764 49.1662 791.23 42.7547 791.394 42.4259C791.394 42.7547 793.203 54.9201 793.203 54.9201C797.313 54.9201 799.614 52.2898 800.765 49.495L806.519 35.1924C802.245 35.1924 800.107 37.9872 798.957 40.9463ZM837.755 34.6992C835.289 34.6992 833.316 36.0144 831.672 38.1516L832.987 26.3149C829.535 26.3149 826.904 29.2741 826.247 33.5484L823.616 54.7557C825.589 54.7557 827.562 54.2625 828.713 52.7829C829.699 54.0981 831.179 55.0845 833.316 55.0845C839.07 55.0845 843.015 48.5086 843.015 42.2615C843.18 36.5076 840.385 34.6992 837.755 34.6992ZM837.097 44.8919C836.439 48.3442 834.631 50.6458 832.658 50.6458C830.85 50.6458 830.028 49.8238 830.028 49.8238C830.357 46.8646 830.685 44.8919 831.343 43.2479C832.001 41.6039 833.645 39.1379 835.289 39.1379C836.933 39.3023 837.755 41.4395 837.097 44.8919ZM857.482 35.1924H853.537V35.028C853.865 32.3976 854.359 31.0825 856.496 30.9181C857.811 30.7537 858.469 30.0961 858.633 29.2741C858.797 28.6165 859.126 26.4793 859.126 26.4793C851.071 26.4793 848.605 29.9317 847.947 35.1924V35.3568H847.783C846.468 35.3568 844.988 36.8364 844.824 38.6448L844.659 39.3023H847.29L844.988 57.7149L844.33 61.0028C844.495 61.0028 844.495 61.0028 844.659 61.0028C848.44 60.8384 850.742 57.8793 851.4 53.6049L853.208 39.1379H854.523C855.674 39.1379 857.153 37.9872 857.482 35.85V35.1924ZM878.196 34.8636C873.593 34.8636 869.319 38.316 868.004 43.5767C866.688 48.8374 868.661 55.2489 875.402 55.2489C882.142 55.2489 886.087 48.673 886.087 43.2479C885.923 37.8228 882.306 34.8636 878.196 34.8636ZM880.005 44.7275C879.84 47.1934 878.689 50.8102 875.73 50.8102C872.771 50.8102 873.264 46.5358 873.429 44.5631C873.758 42.4259 874.908 39.3023 877.539 39.3023C880.005 39.3023 880.333 42.0971 880.005 44.7275ZM908.774 40.9463C908.774 40.9463 906.473 48.1798 906.308 48.8374C906.308 48.1798 904.5 35.1924 904.5 35.1924C900.554 35.1924 898.417 37.9872 897.431 40.9463C897.431 40.9463 894.636 48.1798 894.472 48.8374C894.472 48.3442 893.978 41.1107 893.978 41.1107C893.814 37.494 890.362 35.3568 887.731 35.3568L891.019 55.0845C895.129 55.0845 897.431 52.2897 898.582 49.3306C898.582 49.3306 901.048 42.9191 901.212 42.5903C901.212 42.9191 903.02 55.0845 903.02 55.0845C907.13 55.0845 909.432 52.4541 910.583 49.6594L916.008 35.1924C911.898 35.1924 909.761 37.9872 908.774 40.9463ZM861.263 26.4793L857.975 53.4405L857.318 56.7285C857.482 56.7285 857.482 56.7285 857.647 56.7285C861.263 56.7285 863.894 53.4405 864.223 49.495L866.195 34.0416C866.688 29.4385 863.729 26.4793 861.263 26.4793Z" fill="#9CCFC7"/>
<g clip-path="url(#clip3_17_351)">
<path d="M999.007 30.2504C1001.09 30.2504 1002.78 31.9372 1002.78 34.0187C1002.78 36.1005 1001.09 37.7873 999.007 37.7873H981.773C979.691 37.7873 978.004 36.1005 978.004 34.0187C978.004 31.9372 979.691 30.2504 981.773 30.2504H999.007Z" fill="#9CCFC7"/>
<path d="M997.275 40.1252C999.356 40.1252 1001.04 41.8123 1001.04 43.8938C1001.04 45.9752 999.356 47.6624 997.275 47.6624H987.466C986.629 47.6654 985.944 48.3272 985.912 49.1554V54.0672C985.912 56.1484 984.225 57.8356 982.144 57.8356C980.062 57.8356 978.375 56.1484 978.375 54.0672V45.7082C978.375 42.6249 980.875 40.125 983.958 40.125L997.275 40.1252ZM1004.49 33.2244C1004.49 31.1432 1006.17 29.4558 1008.26 29.4558C1010.34 29.4558 1012.02 31.1432 1012.02 33.2244V54.0936C1012.02 56.175 1010.34 57.8622 1008.26 57.8622C1006.17 57.8622 1004.49 56.1749 1004.49 54.0936V33.2244ZM1050.87 50.3874L1052.38 50.3836C1052.53 50.3834 1052.68 50.3243 1052.78 50.2192C1052.89 50.1141 1052.95 49.9716 1052.95 49.823C1052.95 49.7494 1052.93 49.6761 1052.91 49.6081L1047.27 40.1452L1038.48 55.3783C1037.8 56.5562 1036.58 57.228 1035.31 57.2618C1035.27 57.2671 1035.23 57.2698 1035.2 57.2698H1020.88C1017.8 57.2698 1015.3 54.7701 1015.3 51.6868V33.2247C1015.3 31.1433 1016.98 29.4559 1019.06 29.4559C1021.15 29.4559 1022.83 31.1433 1022.83 33.2246V48.1787C1022.84 49.0158 1023.5 49.701 1024.33 49.7322H1032.34C1032.54 49.6688 1033.17 49.4547 1033.36 49.1565L1043.42 31.7425C1044.19 30.4318 1045.61 29.5494 1047.23 29.5494C1048.86 29.5494 1050.28 30.4332 1051.04 31.7466L1060.84 48.2041C1061.6 49.1873 1062.01 50.3933 1062 51.6337C1062 54.7465 1059.48 57.2695 1056.37 57.2695H1044.94C1043.04 57.2695 1041.5 55.7287 1041.5 53.828C1041.5 51.9279 1043.04 50.3874 1044.94 50.3874H1050.87Z" fill="#9CCFC7"/>
</g>
<path d="M1134.92 46.6738C1130.28 46.6278 1127.29 44.4275 1127.29 41.058C1127.29 37.6885 1130.28 35.492 1134.92 35.4421C1139.56 35.492 1142.55 37.6961 1142.55 41.058C1142.55 44.4198 1139.56 46.6278 1134.92 46.6738ZM1135.06 32.7281H1134.78C1128.43 32.8316 1124 36.2548 1124 41.0541C1124 45.8535 1128.43 49.2843 1134.78 49.3878H1135.06C1141.4 49.2843 1145.83 45.8573 1145.83 41.0541C1145.83 36.251 1141.4 32.8316 1135.06 32.7281ZM1205.09 46.6738C1200.45 46.6278 1197.45 44.4236 1197.45 41.058C1197.45 37.6923 1200.45 35.492 1205.09 35.4421C1209.72 35.492 1212.72 37.6961 1212.72 41.058C1212.72 44.4198 1209.72 46.6278 1205.09 46.6738ZM1205.22 32.7281H1204.94C1198.6 32.8316 1194.17 36.2548 1194.17 41.058C1194.17 45.8611 1198.6 49.2881 1204.94 49.3916H1205.22C1211.57 49.2881 1216 45.8611 1216 41.0541C1216 36.2471 1211.57 32.8316 1205.22 32.7281ZM1181.74 46.6738C1177.1 46.6278 1174.11 44.4236 1174.11 41.058C1174.11 37.6923 1177.1 35.492 1181.74 35.4421C1186.38 35.492 1189.37 37.6961 1189.37 41.058C1189.37 44.4198 1186.38 46.6278 1181.75 46.6738H1181.74ZM1181.88 32.7281H1181.6C1178.58 32.778 1175.99 33.5791 1174.11 34.9285V33.5101H1170.82V54.5935H1174.11V47.1913C1175.98 48.5368 1178.58 49.338 1181.6 49.3916H1181.88C1188.22 49.2881 1192.65 45.8611 1192.65 41.058C1192.65 36.2548 1188.22 32.8316 1181.88 32.7281ZM1158.33 46.6738C1153.69 46.6278 1150.7 44.4236 1150.7 41.058C1150.7 37.6923 1153.69 35.492 1158.33 35.4421C1162.97 35.492 1165.96 37.6961 1165.96 41.058C1165.96 44.4198 1162.97 46.6278 1158.33 46.6738H1158.33ZM1158.47 32.7281H1158.19C1155.17 32.778 1152.58 33.5791 1150.7 34.9285V33.5101H1147.42V54.5935H1150.7V47.1913C1152.58 48.5368 1155.17 49.338 1158.19 49.3916C1158.29 49.3925 1158.38 49.3925 1158.47 49.3916C1164.82 49.2881 1169.25 45.8611 1169.25 41.058C1169.25 36.2548 1164.82 32.8316 1158.48 32.7281H1158.47Z" fill="#9CCFC7"/>
<defs>
<clipPath id="clip0_17_351">
<rect width="133.967" height="57.4144" fill="white" transform="translate(44 14.9517)"/>
</clipPath>
<clipPath id="clip1_17_351">
<rect width="161.478" height="57.4144" fill="white" transform="translate(405.126 14.9517)"/>
</clipPath>
<clipPath id="clip2_17_351">
<rect width="87.3177" height="87.3177" fill="white" transform="translate(628.6)"/>
</clipPath>
<clipPath id="clip3_17_351">
<rect width="84" height="84" fill="white" transform="translate(978.004 1.65887)"/>
</clipPath>
</defs>
</svg>
