<svg width="78" height="40" viewBox="0 0 78 40" fill="none" xmlns="http://www.w3.org/2000/svg">
<path d="M1.94688 9.31872C1.86368 8.80288 1.67232 8.53664 1.3728 8.52C1.22304 8.52 1.08992 8.55328 0.97344 8.61984C0.85696 8.6864 0.72384 8.78624 0.57408 8.91936L0.2496 8.17056C0.416 7.92096 0.73216 7.63808 1.19808 7.32192C1.68064 7.00576 2.21312 6.84768 2.79552 6.84768C3.37792 6.84768 3.80224 6.98912 4.06848 7.272C4.33472 7.55488 4.50112 7.97088 4.56768 8.52L5.59104 16.2576L5.91552 18.9283L7.33824 17.0563C8.12032 15.8915 8.736 14.7766 9.18528 13.7117C9.63456 12.6301 9.92576 11.4902 10.0589 10.2922C10.0755 10.0093 10.0506 9.73472 9.984 9.46848C9.91744 9.1856 9.87584 9.02752 9.8592 8.99424C9.74272 8.6448 9.68448 8.36192 9.68448 8.1456C9.68448 7.74624 9.79264 7.43008 10.009 7.19712C10.2419 6.96416 10.5498 6.84768 10.9325 6.84768C11.465 6.84768 11.8643 7.07232 12.1306 7.5216C12.4134 7.95424 12.5549 8.53664 12.5549 9.2688C12.5715 10.3837 12.1722 11.7066 11.3568 13.2374C10.5581 14.7683 9.53472 16.3408 8.28672 17.9549L5.91552 21.0998L4.06848 21.2496L3.26976 16.7069L1.94688 9.31872ZM21.253 6.82272C22.9004 6.82272 24.165 7.32192 25.047 8.32032C25.9289 9.31872 26.3698 10.7414 26.3698 12.5885C26.3698 14.1027 26.062 15.5254 25.4463 16.8566C24.8473 18.1878 23.9903 19.2611 22.8754 20.0765C21.7772 20.8752 20.5292 21.2746 19.1314 21.2746C17.4841 21.2746 16.2194 20.7754 15.3375 19.777C14.4556 18.7786 14.0146 17.3558 14.0146 15.5088C14.0146 13.9779 14.3142 12.5469 14.9132 11.2157C15.5289 9.88448 16.3858 8.81952 17.4841 8.0208C18.599 7.22208 19.8553 6.82272 21.253 6.82272ZM20.9036 8.19552C20.0383 8.19552 19.2978 8.5616 18.6822 9.29376C18.0665 10.0093 17.6006 10.9245 17.2844 12.0394C16.9849 13.1376 16.8351 14.2608 16.8351 15.409C16.8351 18.4374 17.742 19.9517 19.5558 19.9517C20.4044 19.9517 21.1282 19.5856 21.7273 18.8534C22.3263 18.1213 22.7756 17.1978 23.0751 16.0829C23.3747 14.968 23.5244 13.8365 23.5244 12.6883C23.5244 9.69312 22.6508 8.19552 20.9036 8.19552ZM31.567 18.7786C31.5503 18.8451 31.542 18.9366 31.542 19.0531C31.542 19.4525 31.6751 19.6522 31.9414 19.6522C32.2575 19.6522 32.6819 19.4109 33.2143 18.9283L33.5388 19.5773C33.3059 19.9434 32.9481 20.3178 32.4655 20.7005C31.983 21.0666 31.3756 21.2496 30.6435 21.2496C30.111 21.2496 29.6867 21.1248 29.3705 20.8752C29.0543 20.6256 28.8963 20.2346 28.8963 19.7021C28.8963 19.6022 28.9046 19.4525 28.9212 19.2528C28.9545 19.0531 28.9795 18.9117 28.9961 18.8285L31.2425 2.67936L29.695 2.23008L29.9196 1.33152L33.4639 0.882239L33.9881 1.20672L31.567 18.7786ZM39.4239 16.607C39.3074 17.3725 39.2492 17.9798 39.2492 18.4291C39.2492 18.8285 39.3241 19.1114 39.4738 19.2778C39.6402 19.4442 39.9231 19.5274 40.3225 19.5274C40.6719 19.5274 41.0796 19.4275 41.5455 19.2278C42.0281 19.0282 42.4025 18.8202 42.6687 18.6038L42.9183 19.4525C42.5522 19.8685 41.9782 20.2762 41.1961 20.6755C40.414 21.0582 39.607 21.2496 38.775 21.2496C38.0927 21.2496 37.5519 21.0832 37.1526 20.7504C36.7698 20.401 36.5785 19.8685 36.5785 19.153C36.5785 18.8368 36.6367 18.1712 36.7532 17.1562L37.8764 8.71968H36.3788L36.6034 7.69632L38.151 7.17216C38.517 6.7728 39.0412 5.63296 39.7234 3.75264H41.1212L40.6969 7.1472H43.8918L43.6921 8.71968H40.4972L39.4239 16.607ZM55.2347 18.6538C55.2181 18.7203 55.2098 18.8118 55.2098 18.9283C55.2098 19.1779 55.2514 19.361 55.3346 19.4774C55.4344 19.5939 55.5592 19.6522 55.709 19.6522C55.9752 19.6522 56.3413 19.4442 56.8072 19.0282L57.1566 19.6771C56.9736 19.9766 56.6242 20.3178 56.1083 20.7005C55.6091 21.0666 55.0434 21.2496 54.411 21.2496C53.8952 21.2496 53.4875 21.1248 53.188 20.8752C52.8885 20.609 52.747 20.2013 52.7637 19.6522L52.8635 18.9283C52.331 19.5773 51.707 20.1264 50.9915 20.5757C50.2926 21.025 49.5355 21.2496 48.7202 21.2496C47.3723 21.2496 46.3656 20.7754 45.7 19.8269C45.0344 18.8618 44.7016 17.5971 44.7016 16.033C44.7016 14.6019 45.0178 13.1792 45.6501 11.7648C46.2824 10.3338 47.2059 9.15232 48.4206 8.22048C49.6354 7.28864 51.0581 6.82272 52.6888 6.82272C53.0715 6.82272 53.5042 6.87264 53.9867 6.97248C54.4693 7.05568 54.9102 7.15552 55.3096 7.272L56.8322 6.84768L55.2347 18.6538ZM54.0117 8.59488C53.579 8.32864 53.0466 8.19552 52.4142 8.19552C51.3493 8.19552 50.4424 8.58656 49.6936 9.36864C48.9448 10.1507 48.379 11.1325 47.9963 12.3139C47.6302 13.4787 47.4472 14.6518 47.4472 15.8333C47.4472 17.0314 47.6219 17.9632 47.9714 18.6288C48.3374 19.2778 48.8699 19.6022 49.5688 19.6022C50.1512 19.6022 50.7336 19.3859 51.316 18.9533C51.915 18.504 52.4226 17.9965 52.8386 17.4307L54.0117 8.59488ZM62.7496 19.0282C62.7496 19.2278 62.7829 19.3859 62.8495 19.5024C62.9327 19.6022 63.0325 19.6522 63.149 19.6522C63.332 19.6522 63.5151 19.6022 63.6981 19.5024C63.8978 19.3859 64.1391 19.1946 64.422 18.9283L64.7464 19.5773C64.4968 19.9267 64.1141 20.2928 63.5983 20.6755C63.0824 21.0582 62.4751 21.2496 61.7762 21.2496C61.1938 21.2496 60.7445 21.1165 60.4284 20.8502C60.1288 20.584 60.004 20.193 60.054 19.6771C60.1372 18.945 60.3535 17.3725 60.7029 14.9597C61.1688 11.7315 61.4517 9.70976 61.5516 8.8944L60.004 8.29536L60.1788 7.42176L63.8728 6.84768L64.4469 7.12224L62.7746 18.7786L62.7496 19.0282ZM63.4485 4.20192C63.0658 4.20192 62.733 4.06048 62.4501 3.7776C62.1839 3.49472 62.0508 3.1536 62.0508 2.75424C62.0508 2.2384 62.2255 1.79744 62.5749 1.43136C62.941 1.06528 63.3653 0.882239 63.8479 0.882239C64.2972 0.882239 64.6466 1.02368 64.8962 1.30656C65.1458 1.5728 65.2706 1.9056 65.2706 2.30496C65.254 2.83744 65.0792 3.28672 64.7464 3.6528C64.4136 4.01888 63.981 4.20192 63.4485 4.20192ZM76.0135 9.86784C75.0651 8.91936 74.3163 8.44512 73.7671 8.44512C73.0017 8.44512 72.3111 8.73632 71.6955 9.31872C71.0798 9.90112 70.5972 10.7082 70.2478 11.7398C69.8983 12.7715 69.7236 13.953 69.7236 15.2842C69.7236 18.113 70.6055 19.5274 72.3694 19.5274C73.0683 19.5274 73.6673 19.4026 74.1665 19.153C74.6657 18.9034 75.1982 18.5206 75.7639 18.0048L76.2881 18.9533C75.8721 19.519 75.2481 20.0432 74.4161 20.5258C73.5841 21.0083 72.6107 21.2496 71.4958 21.2496C70.0814 21.2496 68.9748 20.7587 68.1761 19.777C67.3774 18.7786 66.978 17.3891 66.978 15.6086C66.978 14.2442 67.2609 12.888 67.8267 11.5402C68.4091 10.1757 69.2577 9.05248 70.3726 8.17056C71.5041 7.272 72.8353 6.82272 74.3662 6.82272C74.8487 6.82272 75.3563 6.87264 75.8887 6.97248C76.4212 7.07232 76.8622 7.20544 77.2116 7.37184L76.5127 9.99264L76.0135 9.86784Z" fill="white"/>
<path d="M3.08256 37.1248C2.53344 37.1248 2.0384 37.0291 1.59744 36.8378C1.15648 36.6464 0.7904 36.3635 0.4992 35.9891L1.3728 35.2403C1.6224 35.5315 1.8928 35.7437 2.184 35.8768C2.48352 36.0016 2.82048 36.064 3.19488 36.064C3.34464 36.064 3.48192 36.0474 3.60672 36.0141C3.73984 35.9725 3.85216 35.9142 3.94368 35.8394C4.04352 35.7645 4.1184 35.6771 4.16832 35.5773C4.21824 35.4691 4.2432 35.3526 4.2432 35.2278C4.2432 35.0115 4.16416 34.8368 4.00608 34.7037C3.92288 34.6454 3.78976 34.583 3.60672 34.5165C3.432 34.4416 3.2032 34.3667 2.92032 34.2918C2.43776 34.167 2.04256 34.0256 1.73472 33.8675C1.42688 33.7094 1.18976 33.5306 1.02336 33.3309C0.89856 33.1728 0.80704 33.0022 0.7488 32.8192C0.69056 32.6278 0.66144 32.4198 0.66144 32.1952C0.66144 31.9206 0.71968 31.671 0.83616 31.4464C0.96096 31.2134 1.12736 31.0138 1.33536 30.8474C1.55168 30.6726 1.80128 30.5395 2.08416 30.448C2.37536 30.3565 2.6832 30.3107 3.00768 30.3107C3.31552 30.3107 3.6192 30.3523 3.91872 30.4355C4.22656 30.5187 4.50944 30.6394 4.76736 30.7974C5.02528 30.9555 5.2416 31.1427 5.41632 31.359L4.68 32.1702C4.52192 32.0122 4.3472 31.8749 4.15584 31.7584C3.9728 31.6336 3.7856 31.5379 3.59424 31.4714C3.40288 31.4048 3.22816 31.3715 3.07008 31.3715C2.89536 31.3715 2.73728 31.3882 2.59584 31.4214C2.4544 31.4547 2.33376 31.5046 2.23392 31.5712C2.1424 31.6378 2.07168 31.721 2.02176 31.8208C1.97184 31.9206 1.94688 32.033 1.94688 32.1578C1.9552 32.2659 1.98016 32.3699 2.02176 32.4698C2.07168 32.5613 2.13824 32.6403 2.22144 32.7069C2.31296 32.7734 2.45024 32.8442 2.63328 32.919C2.81632 32.9939 3.04928 33.0646 3.33216 33.1312C3.74816 33.2394 4.08928 33.36 4.35552 33.4931C4.63008 33.6179 4.8464 33.7635 5.00448 33.9299C5.17088 34.088 5.28736 34.271 5.35392 34.479C5.42048 34.687 5.45376 34.92 5.45376 35.1779C5.45376 35.5523 5.3456 35.8893 5.12928 36.1888C4.92128 36.48 4.6384 36.7088 4.28064 36.8752C3.92288 37.0416 3.52352 37.1248 3.08256 37.1248ZM7.68163 37V28.7757H8.96707V37H7.68163ZM6.32131 31.696V30.448H10.4896V31.696H6.32131ZM14.1201 37.1248C13.5793 37.1248 13.0843 36.975 12.635 36.6755C12.1941 36.376 11.8405 35.9683 11.5742 35.4525C11.308 34.9366 11.1749 34.3542 11.1749 33.7053C11.1749 33.048 11.308 32.4656 11.5742 31.9581C11.8488 31.4422 12.2149 31.0387 12.6725 30.7475C13.1384 30.4563 13.6584 30.3107 14.2325 30.3107C14.5736 30.3107 14.8856 30.3606 15.1685 30.4605C15.4513 30.5603 15.6968 30.7018 15.9048 30.8848C16.1211 31.0595 16.2958 31.2634 16.4289 31.4963C16.5704 31.7293 16.6577 31.9789 16.691 32.2451L16.404 32.1453V30.448H17.7019V37H16.404V35.44L16.7035 35.3526C16.6536 35.5773 16.5496 35.7978 16.3915 36.0141C16.2417 36.2221 16.0462 36.4093 15.8049 36.5757C15.572 36.7421 15.3099 36.8752 15.0187 36.975C14.7358 37.0749 14.4363 37.1248 14.1201 37.1248ZM14.4571 35.9392C14.8481 35.9392 15.1934 35.8435 15.4929 35.6522C15.7925 35.4608 16.0254 35.1987 16.1918 34.8659C16.3665 34.5248 16.4539 34.1379 16.4539 33.7053C16.4539 33.281 16.3665 32.9024 16.1918 32.5696C16.0254 32.2368 15.7925 31.9747 15.4929 31.7834C15.1934 31.592 14.8481 31.4963 14.4571 31.4963C14.0744 31.4963 13.7333 31.592 13.4337 31.7834C13.1425 31.9747 12.9096 32.2368 12.7349 32.5696C12.5685 32.9024 12.4853 33.281 12.4853 33.7053C12.4853 34.1379 12.5685 34.5248 12.7349 34.8659C12.9096 35.1987 13.1425 35.4608 13.4337 35.6522C13.7333 35.8435 14.0744 35.9392 14.4571 35.9392ZM19.4967 37V30.448H20.7946V32.5072L20.6698 32.008C20.7613 31.6918 20.9152 31.4048 21.1316 31.1469C21.3562 30.889 21.61 30.6851 21.8928 30.5354C22.184 30.3856 22.4836 30.3107 22.7914 30.3107C22.9328 30.3107 23.066 30.3232 23.1908 30.3482C23.3239 30.3731 23.4279 30.4022 23.5028 30.4355L23.1658 31.8333C23.066 31.7917 22.9536 31.7584 22.8288 31.7334C22.7124 31.7002 22.5959 31.6835 22.4794 31.6835C22.2548 31.6835 22.0384 31.7293 21.8304 31.8208C21.6308 31.904 21.4519 32.0246 21.2938 32.1827C21.144 32.3325 21.0234 32.5114 20.9319 32.7194C20.8404 32.919 20.7946 33.1395 20.7946 33.3808V37H19.4967ZM25.5851 37V28.7757H26.8705V37H25.5851ZM24.2248 31.696V30.448H28.3931V31.696H24.2248ZM31.8599 37.1248C31.394 37.1248 30.9863 37.0166 30.6368 36.8003C30.2957 36.584 30.0295 36.2803 29.8381 35.8893C29.6551 35.4982 29.5636 35.0323 29.5636 34.4915V30.448H30.849V34.1421C30.849 34.5248 30.9072 34.8576 31.0237 35.1405C31.1485 35.415 31.3232 35.6272 31.5479 35.777C31.7808 35.9267 32.0596 36.0016 32.384 36.0016C32.6253 36.0016 32.8458 35.9642 33.0455 35.8893C33.2452 35.8061 33.4157 35.6938 33.5572 35.5523C33.7069 35.4109 33.8234 35.2403 33.9066 35.0406C33.9898 34.841 34.0314 34.6246 34.0314 34.3917V30.448H35.3168V37H34.0314V35.6272L34.256 35.4774C34.1562 35.7853 33.9856 36.064 33.7444 36.3136C33.5114 36.5632 33.2327 36.7629 32.9082 36.9126C32.5837 37.0541 32.2343 37.1248 31.8599 37.1248ZM37.1198 39.7456V30.448H38.4177V31.9456L38.218 31.8333C38.268 31.5837 38.4094 31.3466 38.6424 31.1219C38.8753 30.889 39.1582 30.7018 39.491 30.5603C39.8321 30.4106 40.1816 30.3357 40.5393 30.3357C41.13 30.3357 41.6542 30.4813 42.1118 30.7725C42.5694 31.0637 42.9313 31.463 43.1976 31.9706C43.4638 32.4781 43.5969 33.0605 43.5969 33.7178C43.5969 34.3667 43.4638 34.9491 43.1976 35.465C42.9396 35.9725 42.5819 36.376 42.1243 36.6755C41.6667 36.9667 41.1508 37.1123 40.5768 37.1123C40.194 37.1123 39.8238 37.0374 39.466 36.8877C39.1083 36.7296 38.8046 36.5299 38.555 36.2886C38.3054 36.0474 38.1515 35.7978 38.0932 35.5398L38.4177 35.3651V39.7456H37.1198ZM40.3646 35.9267C40.7473 35.9267 41.0884 35.831 41.388 35.6397C41.6875 35.4483 41.9246 35.1862 42.0993 34.8534C42.274 34.5206 42.3614 34.1421 42.3614 33.7178C42.3614 33.2934 42.274 32.919 42.0993 32.5946C41.9329 32.2618 41.7 31.9997 41.4004 31.8083C41.1009 31.617 40.7556 31.5213 40.3646 31.5213C39.9736 31.5213 39.6283 31.617 39.3288 31.8083C39.0292 31.9914 38.7921 32.2493 38.6174 32.5821C38.4427 32.9149 38.3553 33.2934 38.3553 33.7178C38.3553 34.1421 38.4427 34.5206 38.6174 34.8534C38.7921 35.1862 39.0292 35.4483 39.3288 35.6397C39.6283 35.831 39.9736 35.9267 40.3646 35.9267Z" fill="#51BBAA"/>
</svg>
